<svg width="30" height="27" viewBox="0 0 30 27" fill="none" xmlns="http://www.w3.org/2000/svg">
<path d="M30 13.3981C30 5.99772 23.2852 0 15 0C6.71484 0 0 5.99772 0 13.3981C0 19.6784 4.8457 24.9539 11.3789 26.4036V17.4907H8.28516V13.3981H11.3789V11.6343C11.3789 7.07585 13.6875 4.96147 18.7031 4.96147C19.6523 4.96147 21.293 5.12894 21.9668 5.29642V9.00182C21.6152 8.97042 21 8.94948 20.2324 8.94948C17.7715 8.94948 16.8223 9.78163 16.8223 11.9431V13.3981H21.7207L20.877 17.4907H16.8164V26.6967C24.2461 25.8959 30 20.2489 30 13.3981Z" fill="black"/>
</svg>
