<svg width="294" height="150" viewBox="0 0 294 150" fill="none" xmlns="http://www.w3.org/2000/svg">
<path d="M0.776367 49.9822C0.74583 36.8519 16.0543 24.2332 43.334 14.9019C70.6137 5.57068 107.63 0.291313 146.24 0.225244C184.85 0.15916 221.891 5.3118 249.213 14.5496C276.536 23.7874 293.463 37.4067 293.494 50.537L289.413 59.0384L285.332 68.0399L273.089 86.0428L259.68 101.545L244.521 115.047L223.533 129.55L211.29 135.551L200.796 139.551L188.553 144.052L176.31 146.552L164.65 148.053L151.241 149.053L134.917 149.053L118.593 146.552L106.35 144.052L93.5236 139.551L81.2805 135.051L70.2034 129.05L59.7094 122.549L50.9642 115.548L42.2193 108.546L34.0572 101.045L20.0651 84.0423L8.98803 67.0396L0.776367 49.9822Z" fill="#D9D9D9" fill-opacity="0.5"/>
</svg>
