<svg width="294" height="150" viewBox="0 0 294 150" fill="none" xmlns="http://www.w3.org/2000/svg">
<path d="M0.625889 50.0007C0.595352 36.8725 15.9035 24.2558 43.1828 14.9261C70.4621 5.59631 107.478 0.317796 146.087 0.251739C184.697 0.185681 221.737 5.33748 249.059 14.5738C276.382 23.8101 293.308 37.4272 293.339 50.5554L289.258 59.0555L285.177 68.0555L272.934 86.0555L259.525 101.555L244.367 115.055L223.379 129.555L211.136 135.555L200.643 139.555L188.4 144.055L176.157 146.555L164.497 148.055L151.088 149.055L134.764 149.055L118.44 146.555L106.198 144.055L93.3717 139.555L81.1288 135.055L70.0519 129.055L59.558 122.555L50.8129 115.555L42.0681 108.555L33.9062 101.055L19.9143 84.0554L8.83742 67.0554L0.625889 50.0007Z" fill="#D9D9D9" fill-opacity="0.5"/>
</svg>
