<svg width="294" height="150" viewBox="0 0 294 150" fill="none" xmlns="http://www.w3.org/2000/svg">
<path d="M0.941406 50.0007C0.910869 36.8725 16.2193 24.2558 43.499 14.9261C70.7787 5.59631 107.795 0.317796 146.405 0.251739C185.015 0.185681 222.056 5.33748 249.378 14.5738C276.701 23.8101 293.628 37.4272 293.659 50.5554L289.578 59.0555L285.497 68.0555L273.254 86.0555L259.845 101.555L244.686 115.055L223.698 129.555L211.455 135.555L200.961 139.555L188.718 144.055L176.475 146.555L164.815 148.055L151.406 149.055L135.082 149.055L118.758 146.555L106.515 144.055L93.6886 139.555L81.4455 135.055L70.3685 129.055L59.8744 122.555L51.1292 115.555L42.3843 108.555L34.2222 101.055L20.2301 84.0554L9.15306 67.0554L0.941406 50.0007Z" fill="#D9D9D9" fill-opacity="0.5"/>
</svg>
