<svg width="60" height="54" viewBox="0 0 60 54" fill="none" xmlns="http://www.w3.org/2000/svg">
<path d="M60 26.7961C60 11.9954 46.5703 0 30 0C13.4297 0 0 11.9954 0 26.7961C0 39.3568 9.69141 49.9078 22.7578 52.8072V34.9815H16.5703V26.7961H22.7578V23.2687C22.7578 14.1517 27.375 9.92294 37.4062 9.92294C39.3047 9.92294 42.5859 10.2579 43.9336 10.5928V18.0036C43.2305 17.9408 42 17.899 40.4648 17.899C35.543 17.899 33.6445 19.5633 33.6445 23.8862V26.7961H43.4414L41.7539 34.9815H33.6328V53.3933C48.4922 51.7919 60 40.4977 60 26.7961Z" fill="black"/>
</svg>
