<svg width="25" height="25" viewBox="0 0 25 25" fill="none" xmlns="http://www.w3.org/2000/svg">
<g clip-path="url(#clip0_579_86)">
<path d="M8.05176 1.20093C7.67578 0.292727 6.68457 -0.190672 5.7373 0.0681176L1.44043 1.23999C0.59082 1.47437 0 2.24585 0 3.12476C0 15.2048 9.79492 24.9998 21.875 24.9998C22.7539 24.9998 23.5254 24.4089 23.7598 23.5593L24.9316 19.2625C25.1904 18.3152 24.707 17.324 23.7988 16.948L19.1113 14.9949C18.3154 14.6628 17.3926 14.8923 16.8506 15.5613L14.8779 17.9685C11.4404 16.3425 8.65723 13.5593 7.03125 10.1218L9.43848 8.15406C10.1074 7.60718 10.3369 6.68921 10.0049 5.89331L8.05176 1.20581V1.20093Z" fill="black"/>
</g>
<defs>
<clipPath id="clip0_579_86">
<rect width="25" height="25" fill="white"/>
</clipPath>
</defs>
</svg>
