<svg width="68" height="52" viewBox="0 0 68 52" fill="none" xmlns="http://www.w3.org/2000/svg">
<path d="M8.5 6.5C7.33125 6.5 6.375 7.475 6.375 8.66667V11.6594L29.2852 30.8344C32.0344 33.1365 35.9789 33.1365 38.7281 30.8344L61.625 11.6594V8.66667C61.625 7.475 60.6688 6.5 59.5 6.5H8.5ZM6.375 20.0688V43.3333C6.375 44.525 7.33125 45.5 8.5 45.5H59.5C60.6688 45.5 61.625 44.525 61.625 43.3333V20.0688L42.7656 35.8583C37.6656 40.124 30.3211 40.124 25.2344 35.8583L6.375 20.0688ZM0 8.66667C0 3.88646 3.81172 0 8.5 0H59.5C64.1883 0 68 3.88646 68 8.66667V43.3333C68 48.1135 64.1883 52 59.5 52H8.5C3.81172 52 0 48.1135 0 43.3333V8.66667Z" fill="black"/>
</svg>
